<svg xmlns="http://www.w3.org/2000/svg" viewBox="0 0 561.81 293.01"><defs><style>.cls-1{fill:#fc0;}.cls-2{fill:#1dcc81;}.cls-3{fill:#fff;}</style></defs><title>Asset 4</title><g id="Layer_2" data-name="Layer 2"><g id="Layer_1-2" data-name="Layer 1"><g id="atfrg"><path class="cls-1" d="M205,181a102.46,102.46,0,0,0-54.77-90.72l12.16-77a6,6,0,0,0,1.2.12,6.35,6.35,0,1,0-3.2-.9L127.92,81.7l.24.1c-1.52-.4-3-.75-4.6-1.08l.28,0L109,47a6.25,6.25,0,1,0-3.25.27l-3.21,31.25.33,0c-.93,0-1.86,0-2.8,0-54.37,1.28-98.71,45.62-100,100a102.49,102.49,0,0,0,102.46,105c1.55,0,3.1,0,4.64-.11v.11h62A35.79,35.79,0,0,0,205,247.69v-62h-.1C204.92,184.11,205,182.56,205,181Zm-19.48,4.64v58.87a20.57,20.57,0,0,1-20.57,20.57H102.48a83.41,83.41,0,0,1-14.83-1.84,83.56,83.56,0,1,1,97.27-96c.22,1.34.41,2.68.56,4Z"/><path class="cls-2" d="M164.3,217.06a6.23,6.23,0,0,0,1.85-4.44,6.29,6.29,0,0,0-6.29-6.29,33.12,33.12,0,0,0-33.14,33.14,6.29,6.29,0,1,0,12.57,0,20.57,20.57,0,0,1,20.57-20.57A6.22,6.22,0,0,0,164.3,217.06Z"/><path class="cls-2" d="M159.86,198.2a6.29,6.29,0,0,0,0-12.58A53.84,53.84,0,0,0,106,239.47a6.29,6.29,0,1,0,12.57,0,41.26,41.26,0,0,1,41.28-41.27Z"/><path class="cls-2" d="M159.86,228.73a10.75,10.75,0,1,0,10.74,10.74A10.74,10.74,0,0,0,159.86,228.73Z"/><path class="cls-2" d="M159.86,177.45a6.29,6.29,0,0,0,0-12.58,74.6,74.6,0,0,0-74.61,74.6,6.29,6.29,0,1,0,12.58,0,62,62,0,0,1,62-62Z"/><path class="cls-3" d="M293.05,207.33a6.84,6.84,0,0,1,6.84,6.84h0c0,23.85-13.91,36.88-36.66,36.88-23,0-36.66-13-36.66-36.88v-76a11.49,11.49,0,0,1,11.49-11.48h0a11.48,11.48,0,0,1,11.48,11.48v20.1h32.69a9.94,9.94,0,0,1,9.93,9.94h0a9.93,9.93,0,0,1-9.93,9.93H249.54v36c0,11.26,3.31,16.56,13.69,16.56,10.16,0,13.7-5.3,13.7-16.56h0a6.84,6.84,0,0,1,6.84-6.84Z"/><path class="cls-3" d="M379.16,116.53l0,0a10.57,10.57,0,0,1-12.62,3.17,22.28,22.28,0,0,0-8.48-1.63,15,15,0,0,0-15.07,15V158.3h23.63a9.94,9.94,0,0,1,9.93,9.94h0a9.93,9.93,0,0,1-9.93,9.93H343V238a11.5,11.5,0,0,1-11.49,11.49h0A11.49,11.49,0,0,1,320,238V136c0-21.13,17.3-38.51,38.43-38.19a48.39,48.39,0,0,1,16.23,2.71A10.38,10.38,0,0,1,379.16,116.53Z"/><path class="cls-3" d="M447.07,165.65a10.57,10.57,0,0,1-12,3.7,19,19,0,0,0-6.21-.89c-8.62,0-13.25,3.75-13.25,14.57v55a11.5,11.5,0,0,1-11.49,11.49h0A11.49,11.49,0,0,1,392.65,238V183.56a36.2,36.2,0,0,1,35.64-36.3h.58a37.65,37.65,0,0,1,13.44,2.3,10.53,10.53,0,0,1,4.76,16.09Z"/><path class="cls-3" d="M488.27,227.42c0,6.63,5.75,10.16,17.67,10.16h19.43c21.43,0,36.44,7.51,36.44,26.94,0,19.66-15.23,28.49-37.54,28.49H475a9.72,9.72,0,0,1-9.71-9.72h0a9.71,9.71,0,0,1,9.71-9.71h48.59c10.38,0,15-2.21,15-9.06,0-6.62-5.08-8.39-14.8-8.39H504.17c-21.42,0-38.86-9-38.86-28.71,0-4.78,2.12-9.16,4.8-12.72a7.22,7.22,0,0,0-.08-8.82,34.42,34.42,0,0,1-7.37-21.52c0-21.42,19.87-37.1,46.59-37.1,26.5,0,46.38,15.46,46.38,37.1,0,22.08-19.88,37.76-46.38,37.76A59.37,59.37,0,0,1,497,220.83a7.14,7.14,0,0,0-8.69,5.86A6.11,6.11,0,0,0,488.27,227.42Zm-2.43-43.06c0,11,10.6,18.77,23.41,18.77,12.59,0,23.19-8.17,23.19-18.77,0-10.38-10.38-17.67-23.19-17.67C496.22,166.69,485.84,174,485.84,184.36Z"/><circle class="cls-2" cx="106.99" cy="40.94" r="7.16"/><circle class="cls-2" cx="163.59" cy="7.16" r="7.16"/></g></g></g></svg>